{"title":"Leviathan.2014.BRRip.480p.x264.AAC-VYTO [P2PDL]","uid":11706606,"size":514294868,"categoryP":"video","categoryS":"movies","magnet":"?xt=urn:btih:1f63a945c33d5db63b039bbab9deaa6ff94e5003&amp;dn=Leviathan.2014.BRRip.480p.x264.AAC-VYTO+%5BP2PDL%5D&amp;tr=udp%3A%2F%2Ftracker.openbittorrent.com%3A80&amp;tr=udp%3A%2F%2Fopen.demonii.com%3A1337&amp;tr=udp%3A%2F%2Ftracker.coppersurfer.tk%3A6969&amp;tr=udp%3A%2F%2Fexodus.desync.com%3A6969","seeders":16,"leechers":3,"uploader":"ValidusVyto","files":6,"time":1424155273,"description":"Leviathan.2014.BRRip.480p.x264.AAC-VYTO\n\n\nGenre: Drama\nIMDb: http://www.imdb.com/title/tt2802154/\n\nFormat                      : MPEG-4\nFile size                   : 486 MiB\nDuration                    : 2h 21mn\nOverall bit rate            : 481 Kbps\n\nVideo\nFormat                      : AVC\nBit rate                    : 447 Kbps\nWidth                       : 720 pixels\nHeight                      : 304 pixels\nDisplay aspect ratio        : 2.35:1\nFrame rate mode             : Constant\nFrame rate                  : 24.000 fps\nBit depth                   : 8 bits\nStream size                 : 451 MiB (93%)\nWriting library             : x264 core 144 r2525kMod 40bb568\n\nAudio\nFormat                      : AAC\nBit rate mode               : Variable\nBit rate                    : 31.9 Kbps\nChannel(s)                  : 2 channels\nChannel positions           : Front: L R\nSampling rate               : 48.0 KHz\nStream size                 : 32.3 MiB (7%)\nLanguage                    : Russian\n\nSubtitle                    : English\nSource                      : 720p.BluRay.DD5.1.x264-SbR\n &lt;a href=&quot;\nhttp://someimage.com/OdlsYKc&quot; rel=&quot;nofollow&quot; target=&quot;_NEW&quot;&gt;\nhttp://someimage.com/OdlsYKc&lt;/a&gt; &lt;a href=&quot;\nhttp://someimage.com/ijCXEo3&quot; rel=&quot;nofollow&quot; target=&quot;_NEW&quot;&gt;\nhttp://someimage.com/ijCXEo3&lt;/a&gt; &lt;a href=&quot;\nhttp://someimage.com/egnS6ug&quot; rel=&quot;nofollow&quot; target=&quot;_NEW&quot;&gt;\nhttp://someimage.com/egnS6ug&lt;/a&gt; &lt;a href=&quot;\nhttp://someimage.com/KdVPZPy&quot; rel=&quot;nofollow&quot; target=&quot;_NEW&quot;&gt;\nhttp://someimage.com/KdVPZPy&lt;/a&gt; &lt;a href=&quot;\nhttp://someimage.com/Zjb1aHM&quot; rel=&quot;nofollow&quot; target=&quot;_NEW&quot;&gt;\nhttp://someimage.com/Zjb1aHM&lt;/a&gt; &lt;a href=&quot;\nhttp://someimage.com/7RJPoe9&quot; rel=&quot;nofollow&quot; target=&quot;_NEW&quot;&gt;\nhttp://someimage.com/7RJPoe9&lt;/a&gt; &lt;a href=&quot;\nhttp://someimage.com/TMb54ZF&quot; rel=&quot;nofollow&quot; target=&quot;_NEW&quot;&gt;\nhttp://someimage.com/TMb54ZF&lt;/a&gt; &lt;a href=&quot;\nhttp://someimage.com/6VTfdaI&quot; rel=&quot;nofollow&quot; target=&quot;_NEW&quot;&gt;\nhttp://someimage.com/6VTfdaI&lt;/a&gt; &lt;a href=&quot;\nhttp://someimage.com/x9mSU8u&quot; rel=&quot;nofollow&quot; target=&quot;_NEW&quot;&gt;\nhttp://someimage.com/x9mSU8u&lt;/a&gt; &lt;a href=&quot;\nhttp://someimage.com/SnxBrGK&quot; rel=&quot;nofollow&quot; target=&quot;_NEW&quot;&gt;\nhttp://someimage.com/SnxBrGK&lt;/a&gt; &lt;a href=&quot;\nhttp://someimage.com/xdbOdP6&quot; rel=&quot;nofollow&quot; target=&quot;_NEW&quot;&gt;\nhttp://someimage.com/xdbOdP6&lt;/a&gt; &lt;a href=&quot;\nhttp://someimage.com/PY7GaGR&quot; rel=&quot;nofollow&quot; target=&quot;_NEW&quot;&gt;\nhttp://someimage.com/PY7GaGR&lt;/a&gt;\n\n----------------------------------------------------------------------------------------------------\n\n\nEncoder Notes: Looking For Early Access To Anything You Can Provide DVDScr, R5, DVDR, BluRay, Direct\nAudio, Music Releases and Seedboxes. If You Got anything to offer please contact us.\n\nWe require dedicated servers, so as to do more and fast releases of movies.\nSupport us by sending us LC - LezHMTo2cYaiztCCcWxB4cNFVNVpWW3GSx","torrent":{"xt":"urn:btih:1f63a945c33d5db63b039bbab9deaa6ff94e5003","amp;dn":"Leviathan.2014.BRRip.480p.x264.AAC-VYTO+%5BP2PDL%5D","amp;tr":["udp%3A%2F%2Ftracker.openbittorrent.com%3A80","udp%3A%2F%2Fopen.demonii.com%3A1337","udp%3A%2F%2Ftracker.coppersurfer.tk%3A6969","udp%3A%2F%2Fexodus.desync.com%3A6969"],"infoHash":"1f63a945c33d5db63b039bbab9deaa6ff94e5003","infoHashBuffer":{"type":"Buffer","data":[31,99,169,69,195,61,93,182,59,3,155,186,185,222,170,111,249,78,80,3]},"announce":[],"urlList":[]}}